<?xml version="1.0" encoding="UTF-8" standalone="no"?>
<!-- Created with Inkscape (http://www.inkscape.org/) -->

<svg
   xmlns:dc="http://purl.org/dc/elements/1.1/"
   xmlns:cc="http://creativecommons.org/ns#"
   xmlns:rdf="http://www.w3.org/1999/02/22-rdf-syntax-ns#"
   xmlns:svg="http://www.w3.org/2000/svg"
   xmlns="http://www.w3.org/2000/svg"
   xmlns:xlink="http://www.w3.org/1999/xlink"
   xmlns:sodipodi="http://sodipodi.sourceforge.net/DTD/sodipodi-0.dtd"
   xmlns:inkscape="http://www.inkscape.org/namespaces/inkscape"
   width="1200"
   height="1200"
   viewBox="0 0 1200 1200"
   id="svg2"
   version="1.1"
   inkscape:version="0.48.4 r9939"
   sodipodi:docname="rpg_items.svg"
   inkscape:export-filename="G:\_PROJECTS\Stock Packs\2016\Castle Pack\rpg_14.png"
   inkscape:export-xdpi="180"
   inkscape:export-ydpi="180">
  <defs
     id="defs4">
    <clipPath
       clipPathUnits="userSpaceOnUse"
       id="clipPath8747">
      <path
         inkscape:connector-curvature="0"
         id="path8749"
         d="m -1227.3685,1456.3665 c -27.9338,0 -50.4063,27.0723 -50.4063,60.6875 l 0,74.3437 100.8438,0 0,-74.3437 c 0,-33.6152 -22.5038,-60.6875 -50.4375,-60.6875 z"
         style="color:#000000;fill:#ffffff;stroke:#ff0000;stroke-width:1;stroke-linecap:round;stroke-linejoin:round;stroke-miterlimit:4;stroke-opacity:1;stroke-dasharray:none;stroke-dashoffset:0;marker:none;visibility:visible;display:inline;overflow:visible;enable-background:accumulate" />
    </clipPath>
    <inkscape:path-effect
       effect="skeletal"
       id="path-effect8959"
       is_visible="true"
       pattern="M 0,5 C 0,2.24 2.24,0 5,0 7.76,0 10,2.24 10,5 10,7.76 7.76,10 5,10 2.24,10 0,7.76 0,5 z"
       copytype="single_stretched"
       prop_scale="1"
       scale_y_rel="false"
       spacing="0"
       normal_offset="0"
       tang_offset="0"
       prop_units="false"
       vertical_pattern="false"
       fuse_tolerance="0" />
    <inkscape:path-effect
       effect="skeletal"
       id="path-effect8963"
       is_visible="true"
       pattern="m -2.8571429,13.571429 c 0,-2.76 2.24000005,-5.0000004 5,-5.0000004 2.76,0 5,2.2400004 5,5.0000004 0,2.76 -2.24,5 -5,5 -2.75999995,0 -5,-2.24 -5,-5 z"
       copytype="single_stretched"
       prop_scale="1"
       scale_y_rel="false"
       spacing="0"
       normal_offset="0"
       tang_offset="0"
       prop_units="false"
       vertical_pattern="false"
       fuse_tolerance="0" />
    <inkscape:path-effect
       effect="skeletal"
       id="path-effect8967"
       is_visible="true"
       pattern="m -2.8571429,20.714286 c 0,-2.76 2.24000005,-5 5,-5 2.76,0 5,2.24 5,5 0,2.76 -2.24,5 -5,5 -2.75999995,0 -5,-2.24 -5,-5 z"
       copytype="single_stretched"
       prop_scale="1"
       scale_y_rel="false"
       spacing="0"
       normal_offset="0"
       tang_offset="0"
       prop_units="false"
       vertical_pattern="false"
       fuse_tolerance="0" />
    <inkscape:path-effect
       effect="skeletal"
       id="path-effect8971"
       is_visible="true"
       pattern="m -2.8571429,26.428571 c 0,-2.76 2.24000005,-5 5,-5 2.76,0 5,2.24 5,5 0,2.76 -2.24,5 -5,5 -2.75999995,0 -5,-2.24 -5,-5 z"
       copytype="single_stretched"
       prop_scale="1"
       scale_y_rel="false"
       spacing="0"
       normal_offset="0"
       tang_offset="0"
       prop_units="false"
       vertical_pattern="false"
       fuse_tolerance="0" />
    <linearGradient
       inkscape:collect="always"
       xlink:href="#linearGradient13082"
       id="linearGradient10317"
       gradientUnits="userSpaceOnUse"
       gradientTransform="matrix(0.83198221,0,0,1,-332.60604,-5.9999998)"
       x1="-2015.2543"
       y1="1941.9025"
       x2="-2015.7847"
       y2="1980.4398" />
    <linearGradient
       inkscape:collect="always"
       id="linearGradient13082">
      <stop
         style="stop-color:#fefefe;stop-opacity:1;"
         offset="0"
         id="stop13084" />
      <stop
         style="stop-color:#fefefe;stop-opacity:0;"
         offset="1"
         id="stop13086" />
    </linearGradient>
    <linearGradient
       inkscape:collect="always"
       xlink:href="#linearGradient13082"
       id="linearGradient10319"
       gradientUnits="userSpaceOnUse"
       gradientTransform="matrix(0.83198221,0,0,1,-332.60604,-5.9999998)"
       x1="-2015.2543"
       y1="1941.9025"
       x2="-2015.7847"
       y2="1980.4398" />
    <clipPath
       clipPathUnits="userSpaceOnUse"
       id="clipPath8908">
      <path
         style="color:#000000;fill:#333333;fill-opacity:1;stroke:none;stroke-width:2.99999976;marker:none;visibility:visible;display:inline;overflow:visible;enable-background:accumulate"
         d="m -16.005015,-2572.5049 c -64.264904,5.6803 -116.332345,140.4167 -116.332345,210.8901 l 0,316.116 c 0,0 51.880103,127.233 116.332345,127.233 l 214.401535,27.646 214.40155,-27.646 c 63.89317,-8.2388 116.33234,-127.233 116.33234,-127.233 l 0,-316.116 c 0,-70.4734 -52.05387,-205.4208 -116.33234,-210.8901 -148.39239,-12.6264 -291.12893,-12.1688 -428.803085,0 z"
         id="path8910"
         inkscape:connector-curvature="0"
         sodipodi:nodetypes="sccscscsss" />
    </clipPath>
    <linearGradient
       inkscape:collect="always"
       xlink:href="#linearGradient13082"
       id="linearGradient13142"
       gradientUnits="userSpaceOnUse"
       gradientTransform="matrix(0.83198221,0,0,1,-332.60604,-5.9999998)"
       x1="-2015.2543"
       y1="1941.9025"
       x2="-2015.7847"
       y2="1980.4398" />
    <linearGradient
       inkscape:collect="always"
       xlink:href="#linearGradient13082"
       id="linearGradient13144"
       gradientUnits="userSpaceOnUse"
       gradientTransform="matrix(0.83198221,0,0,1,-332.60604,-5.9999998)"
       x1="-2015.2543"
       y1="1941.9025"
       x2="-2015.7847"
       y2="1980.4398" />
  </defs>
  <sodipodi:namedview
     id="base"
     pagecolor="#ffffff"
     bordercolor="#666666"
     borderopacity="1.0"
     inkscape:pageopacity="0.0"
     inkscape:pageshadow="2"
     inkscape:zoom="0.25000001"
     inkscape:cx="1065.8599"
     inkscape:cy="564.66518"
     inkscape:document-units="px"
     inkscape:current-layer="layer1"
     showgrid="false"
     inkscape:window-width="1858"
     inkscape:window-height="1057"
     inkscape:window-x="54"
     inkscape:window-y="-8"
     inkscape:window-maximized="1"
     showguides="true"
     inkscape:guide-bbox="true"
     inkscape:snap-nodes="false"
     borderlayer="true" />
  <metadata
     id="metadata7">
    <rdf:RDF>
      <cc:Work
         rdf:about="">
        <dc:format>image/svg+xml</dc:format>
        <dc:type
           rdf:resource="http://purl.org/dc/dcmitype/StillImage" />
        <dc:title />
      </cc:Work>
    </rdf:RDF>
  </metadata>
  <g
     inkscape:label="Layer 1"
     inkscape:groupmode="layer"
     id="layer1"
     transform="translate(0,147.6378)">
    <g
       id="g10244" />
    <g
       id="g9566"
       transform="translate(-854.795,767.11571)">
      <path
         id="path7807-8"
         d="m 1676.6148,-347.2072 c 1.5652,16.62037 1.7921,33.61474 -0.4012,48.59701 -0.01,0.0371 -0.01,0.077 -0.014,0.11462 0,0.01 -0.01,0.0197 -0.014,0.0284 -0.2364,1.60261 -0.4995,3.17582 -0.788,4.71359 l 0,0.0142 c -0.045,0.24041 -0.077,0.46786 -0.1146,0.65904 -0.048,0.24642 -0.1182,0.53965 -0.1863,0.87396 -0.1236,0.60834 -0.236,1.18934 -0.3581,1.74784 -0.011,0.0459 -0.019,0.0979 -0.029,0.14332 0,0.005 -0.013,0.01 -0.014,0.0142 0,0.01 0,0.005 0,0.0142 l 0,0.0142 c 0,0.0133 -0.011,0 -0.014,0.0142 0.01,-0.0138 -0.031,0.16408 -0.014,0.0859 -0.055,0.24634 -0.082,0.38222 -0.086,0.40116 0,0.016 -0.043,0.14244 -0.1003,0.38685 -0.086,0.3714 -0.1819,0.77801 -0.2865,1.20346 -0.1332,0.54218 -0.5939,2.20534 -0.7307,2.72212 l 2.7651,6.89129 -5.1864,0.48707 c -0.3546,0.91335 -0.7198,1.82266 -1.1031,2.69347 0,0.005 0,0.009 0,0.0142 0.028,-0.0659 0.012,-0.0151 -0.014,0.0431 l -0.014,0 c -0.6997,1.58404 -1.4368,3.10622 -2.235,4.55602 -0.033,0.0609 -0.09,0.1694 -0.172,0.31515 -0.023,0.039 -0.034,0.0339 -0.072,0.10031 -0.2768,0.49216 -0.5553,0.96295 -0.8309,1.41839 -0.2954,0.48753 -0.5931,0.98124 -0.917,1.47565 -0.3227,0.49239 -0.6511,0.96341 -0.9742,1.41835 -0.079,0.11108 -0.1516,0.20672 -0.2292,0.31523 -9.7696,-6.91017 -18.4524,-12.80801 -27.9806,-12.77963 -2.9185,0.009 -5.8601,0.62992 -8.7394,1.91976 -4.7774,2.14042 -8.854,5.3487 -11.9057,9.26956 l 7.2351,9.85694 -11.7911,-1.46135 c -0.9735,2.8438 -5.5834,10.93823 4.8198,26.06322 10.4033,15.12495 38.1308,22.0525 56.1655,32.37767 15.3668,8.79761 34.0533,15.0494 48.9955,19.19105 14.9421,4.14166 27.6473,6.18778 38.0875,5.58614 10.4403,-0.60169 17.9218,-3.21987 25.2458,-8.18089 12.134,-8.21914 24.7269,-22.09157 28.1026,-33.8134 3.3757,-11.72183 5.4525,-24.60659 6.1763,-40.64837 0.7238,-16.04183 -2.0088,-39.24314 4.4884,-62.85556 -3.6502,-0.86865 -10.2593,-2.12029 -11.0031,-2.00577 -0.972,0.14923 11.2455,-7.14255 14.0648,-8.74913 4.7126,-19.62513 33.5582,-46.32001 39.0002,-50.05277 0,0 -14.3604,-6.44392 -21.9046,-8.58603 -11.8411,-3.36215 -24.9606,-6.11352 -36.3324,-6.60204 l -3.4671,5.98866 -1.2322,-6.14626 -4.3983,7.32109 -0.6734,-7.36407 c -7.8008,-0.0297 -15.3505,0.76876 -23.0234,0.62185 -12.388,-0.23708 -25.2154,-1.39311 -40.445,-6.07462 -5.992,1.79609 -11.5365,5.02603 -16.4043,10.43002 1.0433,-5.16912 2.8651,-9.94358 6.1319,-13.99743 -8.6588,-3.35469 -30.8668,-15.39343 -30.8668,-15.39343 -10.1517,11.46156 -19.516,39.5223 -16.2117,74.60819 z"
         style="color:#000000;fill:#7a542e;fill-opacity:1;stroke:none;stroke-width:1px;marker:none;visibility:visible;display:inline;overflow:visible;enable-background:accumulate"
         inkscape:connector-curvature="0"
         sodipodi:nodetypes="scccccccccccccccccccccccccccccccccccczsszazzccccacccccsccccs" />
      <path
         sodipodi:nodetypes="cccccccccccccccccccccccscccccccccccccccccccccscccccccccccccccc"
         inkscape:connector-curvature="0"
         id="path7809-4"
         d="m 1698.8502,-411.86471 c -32.0838,21.59027 -2.2905,75.34629 -19.9145,112.43791 0,0.01 -0.01,0.0193 -0.014,0.0284 -0.3221,2.18301 -0.6902,4.33256 -1.1175,6.43282 -0.1354,0.66665 -0.2689,1.33412 -0.4155,1.99142 -0.01,0.0335 -0.021,0.0667 -0.028,0.10031 -0.061,0.27169 -0.1233,0.54667 -0.1863,0.81662 -0.096,0.41321 -0.2002,0.82266 -0.3008,1.23216 -0.1675,0.68118 -0.3356,1.34999 -0.5158,2.02008 -0.1669,0.62052 -0.3377,1.23752 -0.5158,1.84815 l 3.6391,8.4386 -6.6191,0 c -0.1427,0.33939 -0.2826,0.6831 -0.4298,1.01719 -0.01,0.0192 -0.02,0.0376 -0.028,0.0573 -0.7323,1.65794 -1.5163,3.2599 -2.3639,4.79955 -0.061,0.11031 -0.125,0.21974 -0.1863,0.32955 -0.022,0.0394 -0.049,0.0751 -0.072,0.11461 -0.2865,0.50912 -0.574,1.00908 -0.8739,1.50431 -0.3213,0.53067 -0.6517,1.04768 -0.9885,1.56161 -0.3373,0.51454 -0.6788,1.02123 -1.0316,1.51871 -0.3471,0.48876 -0.6976,0.9751 -1.0602,1.44699 0,0.006 -0.01,0.01 -0.014,0.0142 0,0.006 -0.011,0.009 -0.014,0.0142 -0.3638,0.47263 -0.738,0.93462 -1.1176,1.38974 -0.3851,0.46176 -0.773,0.91784 -1.1747,1.36103 -0.3588,0.39552 -0.7312,0.78008 -1.1032,1.16051 -0.04,0.0413 -0.074,0.0877 -0.1146,0.12892 -0.038,0.0385 -0.077,0.0764 -0.1147,0.11461 -0.3836,0.38589 -0.777,0.76224 -1.1748,1.13186 -0.4307,0.4 -0.8704,0.79437 -1.318,1.17476 -0.4367,0.37117 -0.8796,0.73712 -1.3324,1.08885 -0.019,0.0147 -0.039,0.0284 -0.057,0.0431 -0.01,0.005 -0.01,0.0105 -0.014,0.0142 -0.4083,0.31583 -0.8247,0.61722 -1.2464,0.91692 -0.059,0.0417 -0.1134,0.0877 -0.1719,0.12897 -0.068,0.0474 -0.1326,0.0963 -0.2006,0.14327 -0.4218,0.29268 -0.8542,0.56853 -1.2894,0.84531 -0.044,0.028 -0.085,0.0585 -0.129,0.0859 -0.4627,0.29154 -0.926,0.57221 -1.404,0.84532 -0.5134,0.29323 -1.0305,0.57372 -1.5616,0.84531 -0.013,0.007 -0.03,0.008 -0.043,0.0142 -0.4992,0.25449 -1.0036,0.50995 -1.5187,0.745 -0.043,0.0197 -0.086,0.0376 -0.1289,0.0573 -0.4876,0.22043 -0.9878,0.42766 -1.49,0.63039 -0.076,0.0307 -0.153,0.0557 -0.2293,0.086 -0.4724,0.18751 -0.9472,0.37277 -1.4327,0.54442 -0.1102,0.039 -0.2185,0.0764 -0.3295,0.11462 32.0218,18.77825 76.1374,40.66442 118.7274,31.5909 71.2276,2.89863 40.3187,-46.11696 53.5399,-100.73275 -4.7472,-1.11219 -10.9854,-2.5166 -11.7911,-2.39258 -0.9673,0.1484 9.8088,-7.41953 16.2324,-11.67649 6.4506,-16.3329 17.8486,-32.81669 37.9808,-48.23886 -4.9825,-2.15647 -9.7233,-3.96253 -14.2554,-5.47284 -10.7803,-3.219 -25.2927,-4.33743 -41.2186,-5.01446 l -3.3955,5.38691 -1.2034,-5.58033 -4.4844,7.29956 -0.7306,-7.49297 c -22.6006,-0.7691 -47.0055,-1.28977 -67.2507,-5.81674 -5.7955,3.14269 -11.1544,7.45994 -15.9603,13.32406 0.8903,-5.79415 2.4331,-11.30286 5.0431,-16.33272 -7.5035,-2.51183 -14.1359,-5.80264 -19.4846,-10.18646 z"
         style="color:#000000;fill:#c69956;fill-opacity:1;stroke:none;stroke-width:1px;marker:none;visibility:visible;display:inline;overflow:visible;enable-background:accumulate" />
      <path
         sodipodi:nodetypes="cccscsc"
         inkscape:connector-curvature="0"
         id="path7811-9"
         d="m 1667.4475,-248.92882 c 4.62,15.27532 10.2658,22.95599 12.4837,39.424 22.7733,13.99809 51.5064,24.84413 74.6583,27.53283 31.571,1.02072 50.9502,-21.40938 56.4293,-40.43478 2.9031,-10.08049 3.6379,-21.46159 4.2501,-33.69772 -5.3624,12.56159 -20.6642,28.81367 -33.89,34.10116 -38.2466,15.29045 -89.656,-6.57109 -113.9314,-26.92549 z"
         style="color:#000000;fill:#9c6c3b;fill-opacity:1;stroke:none;stroke-width:1px;marker:none;visibility:visible;display:inline;overflow:visible;enable-background:accumulate" />
      <path
         sodipodi:nodetypes="cssssssc"
         inkscape:connector-curvature="0"
         id="path7813-6"
         d="m 1661.0245,-267.8825 c 12.9684,7.15575 25.8728,17.82162 42.4135,23.49174 8.5868,2.9435 16.9672,6.23915 25.9568,8.53504 7.0772,1.80743 16.6432,4.05794 23.312,6.22375 3.7184,1.20759 34.9613,10.74432 25.6343,16.01923 -4.9784,2.81555 -14.8176,-1.59428 -27.173,-2.70533 -24.7533,-2.22592 -57.5124,-5.51747 -66.8619,-11.08379 -11.552,-6.87754 -24.0413,-26.87389 -23.2817,-40.48064 z"
         style="color:#000000;fill:#7a542e;fill-opacity:1;stroke:none;stroke-width:1.02890527px;marker:none;visibility:visible;display:inline;overflow:visible;enable-background:accumulate" />
      <path
         sodipodi:nodetypes="cccccccssccccccccccc"
         inkscape:connector-curvature="0"
         id="path7815-3"
         d="m 1697.2456,-411.40625 c -14.5204,10.18231 -15.4188,30.16414 -14.4416,46.53395 0.9254,21.76147 0.9573,44.04164 -3.3095,65.47411 -0.9619,4.83114 -2.1257,9.73389 -3.6247,14.49887 l 3.6104,8.38129 -6.6907,0 c -1.347,3.14835 -2.8887,6.18961 -4.6706,9.04028 14.1549,12.16383 74.346,24.40937 104.8148,5.70241 35.0828,-21.53986 17.1247,-53.8773 36.5639,-89.41158 8.9259,-16.31633 30.2657,-31.3073 42.3071,-34.74604 -14.3271,-6.40236 -29.6829,-7.10331 -45.1442,-7.09182 l -3.7394,5.94566 -1.139,-5.92417 -4.5488,7.64341 -0.745,-7.60759 c -5.8052,0.0318 -11.5953,0.01 -17.3212,-0.32952 -16.6429,-0.8405 -34.0347,-1.31213 -50.4882,-5.04308 -5.5731,3.11436 -10.7425,7.32709 -15.3871,12.99454 0.8658,-5.63509 2.3464,-11.0003 4.8282,-15.91724 -7.2811,-2.42403 -14.2913,-5.69289 -20.8744,-10.14348 z"
         style="color:#000000;fill:#f2cb8a;fill-opacity:1;stroke:none;stroke-width:1px;marker:none;visibility:visible;display:inline;overflow:visible;enable-background:accumulate" />
      <path
         sodipodi:nodetypes="sssss"
         inkscape:connector-curvature="0"
         id="path7818"
         d="m 1783.8553,-197.81499 c 0.01,14.55976 -11.5045,18.67079 -22.2547,19.56672 -13.4717,1.12268 -14.115,-8.2488 -13.6599,-19.56672 0.4551,-11.31792 10.6367,-20.45317 20.5543,-20.45317 9.9175,0 15.354,9.12612 15.3603,20.45317 z"
         style="color:#000000;fill:#c69956;fill-opacity:1;fill-rule:nonzero;stroke:none;stroke-width:2;marker:none;visibility:visible;display:inline;overflow:visible;enable-background:accumulate" />
      <path
         id="path7820"
         d="m 1636.1268,-276.76161 c -2.4884,0.007 -4.9594,0.52544 -7.4643,1.64762 -3.9772,1.78177 -7.3942,4.37171 -10.0432,7.50732 l 8.6678,11.80541 -13.9258,-1.71924 c -0.5186,1.99193 -0.8023,4.0617 -0.8023,6.17494 0,26.25485 31.967,32.02671 60.2591,48.22446 31.0638,17.7845 71.7275,26.06726 83.6837,25.34441 -4.0951,-4.21639 -6.6047,-9.97643 -6.6047,-16.31838 0,-4.23276 1.1164,-8.19351 3.0803,-11.61918 l -8.7824,-6.86263 15.4015,-0.48707 c 3.8532,-2.78837 8.5898,-4.4414 13.7109,-4.4414 1.7083,0 3.367,0.18269 4.9714,0.53012 -23.3882,-12.69088 -59.5654,-15.67052 -86.635,-28.9834 -24.6988,-12.14687 -40.3099,-30.84805 -55.517,-30.80298 z"
         style="color:#000000;fill:#f2cb8a;fill-opacity:1;stroke:none;stroke-width:1px;marker:none;visibility:visible;display:inline;overflow:visible;enable-background:accumulate"
         inkscape:connector-curvature="0" />
      <path
         sodipodi:nodetypes="ccccc"
         inkscape:connector-curvature="0"
         id="path7822"
         d="m 1754.6198,-211.92518 c -3.1032,3.61553 -6.9251,8.27928 -7.4828,13.19514 3.7365,0.74033 7.8918,2.01183 13.496,4.21208 1.3167,-7.98903 3.3277,-11.97898 9.3269,-12.77964 -9.3838,-1.8713 -12.2432,-2.95153 -15.3401,-4.62758 z"
         style="color:#000000;fill:#f2cb8a;fill-opacity:1;fill-rule:nonzero;stroke:none;stroke-width:2;marker:none;visibility:visible;display:inline;overflow:visible;enable-background:accumulate" />
      <path
         sodipodi:nodetypes="ccscc"
         inkscape:connector-curvature="0"
         id="path7824"
         d="m 1672.8133,-203.11459 c 28.6023,18.19464 71.7276,26.47745 83.6838,25.75459 -4.0952,-4.21638 -6.6048,-10.38661 -6.6048,-16.72866 0,-3.81853 0.9151,-7.41773 2.5359,-10.60194 -29.3888,18.48117 -53.8545,9.44226 -79.6149,1.57601 z"
         style="color:#000000;fill:#c69956;fill-opacity:1;stroke:none;stroke-width:1px;marker:none;visibility:visible;display:inline;overflow:visible;enable-background:accumulate" />
      <path
         sodipodi:nodetypes="cscscccccccccc"
         inkscape:connector-curvature="0"
         id="path7826"
         d="m 1693.1194,-418.98521 c -10.4765,15.66621 -17.0108,35.50388 -13.7539,70.08743 1.963,20.84349 1.883,42.34524 -2.4928,60.11588 32.1967,1.45032 59.1344,-7.2001 73.4633,-18.54818 30.4869,-24.14474 31.1913,-64.60397 93.2593,-81.38226 -13.3618,-4.06212 -24.9468,-5.57805 -35.8173,-6.1033 l -4.8569,7.73652 -0.7019,-7.91561 -4.9859,9.63485 -0.9455,-9.69932 c -19.6149,-0.0319 -38.0976,1.41393 -62.4225,-5.83107 -7.573,3.21499 -14.5183,8.15608 -20.5735,15.54474 1.1226,-7.30582 3.2789,-14.1577 7.3067,-20.17235 -8.3853,-3.33905 -17.4672,-7.72248 -27.4791,-13.46733 z"
         style="color:#000000;fill:#fbedbf;fill-opacity:1;stroke:none;stroke-width:1px;marker:none;visibility:visible;display:inline;overflow:visible;enable-background:accumulate" />
      <path
         id="path7828"
         d="m 1636.1268,-276.76161 c -2.4884,0.007 -4.9594,0.52544 -7.4643,1.64762 -3.9808,1.78337 -7.3941,4.38281 -10.0432,7.52162 l 7.4356,10.11488 c 33.2288,-5.53864 73.7786,27.42989 109.1284,25.94608 -14.9868,-3.90037 -30.3447,-7.93791 -43.5395,-14.42722 -24.6987,-12.14677 -40.3099,-30.84814 -55.517,-30.80298 z m -22.7655,19.24111 c -0.4069,1.5612 -0.6674,3.15908 -0.7593,4.79955 2.9368,-1.68122 5.9507,-2.91632 9.0402,-3.78231 l -8.2809,-1.01724 z"
         style="color:#000000;fill:#fbedbf;fill-opacity:1;stroke:none;stroke-width:1px;marker:none;visibility:visible;display:inline;overflow:visible;enable-background:accumulate"
         inkscape:connector-curvature="0" />
      <path
         sodipodi:nodetypes="sccszzscczscccsccssazss"
         inkscape:connector-curvature="0"
         id="path7830"
         d="m 1747.2753,-195.24123 c 0,6.96446 3.0394,13.21858 7.8655,17.50749 0.485,-0.005 0.9441,-0.0179 1.361,-0.0431 -4.0951,-4.21639 -6.1416,-10.43947 -6.1416,-16.78152 0,-12.9313 9.8422,-19.66556 17.2219,-21.04489 7.3797,-1.37928 11.3482,2.73202 13.3383,6.99178 1.99,4.25976 1.557,14.64375 -3.3293,20.57652 -4.0345,4.89855 -8.9983,5.76165 -12.2081,-0.13396 -2.5506,-4.68503 -2.238,-12.13449 1.3181,-16.03188 2.6681,-2.92407 5.4063,-1.98505 6.903,0.10242 1.4968,2.08743 1.3653,7.43498 -0.8842,9.22945 -1.2575,1.0032 -3.3229,0.72634 -3.6677,-1.59027 -0.1271,-0.8549 0.4147,-1.3698 1.4041,-1.46135 -2.2264,-2.58857 -3.4533,1.55002 -3.2999,2.58119 0.4157,2.79414 4.2846,4.61823 6.8433,3.17668 3.0238,-1.7035 3.298,-8.93263 1.7789,-12.27899 -2.2295,-4.91096 -7.8208,-4.89982 -11.0388,-1.37305 -4.289,4.70075 -4.6667,13.69074 -1.5903,19.34142 3.8714,7.11081 11.395,7.18325 16.2611,1.27509 5.8935,-7.15564 8.0518,-18.72228 3.6774,-26.48992 -2.9564,-5.24971 -6.9791,-9.4987 -16.5977,-7.15637 -9.6186,2.34233 -19.215,10.67177 -19.215,23.60311 z"
         style="fill:#7a542e;fill-opacity:1;stroke:none" />
      <path
         sodipodi:nodetypes="cccczc"
         inkscape:connector-curvature="0"
         id="path7832"
         d="m 1772.6816,-192.46045 c -5.9047,0.81045 -11.1148,-1.50514 -11.1148,-1.50514 l 0.4631,-4.9785 c 1.2157,-1.04201 4.9785,-1.27357 7.6415,0.34733 0,0 -1.8146,2.4552 -1.1579,3.82072 0.6568,1.36551 4.1681,2.31559 4.1681,2.31559 z"
         style="fill:#7a542e;fill-opacity:1;stroke:none" />
      <path
         id="path7834"
         d="m 1755.1948,-212.1478 c -0.9008,0.94589 -1.7201,2.02292 -2.4642,3.16626 0.3873,-0.50237 0.7902,-0.9863 1.2178,-1.4327 2.8847,2.11587 6.9483,3.30904 13.5532,3.83962 0,0 -2.3608,0.58279 -3.2951,1.30376 -1.6874,1.30206 -3.0758,2.52495 -3.7823,5.1577 -0.7065,2.63274 -0.4264,7.05007 1.1031,9.91425 1.5295,2.86416 4.4127,5.74508 4.4127,5.74508 -6.4684,-2.61149 -12.8498,-3.90194 -16.2754,-3.28085 0,0 -0.7032,-0.77343 -1.2321,-2.70779 0.5895,3.47806 1.7909,4.81387 1.7909,4.81387 3.9801,-0.72579 12.7428,0.77361 20.2582,3.82528 0,0 -4.7129,-3.3725 -6.49,-6.71934 -1.7772,-3.34688 -2.0817,-8.49973 -1.2608,-11.57618 0.8209,-3.07644 2.369,-4.58205 4.3984,-6.01731 1.3158,-0.93066 4.6276,-1.38972 4.6276,-1.38972 -7.6742,-0.61999 -13.2102,-2.16947 -16.562,-4.64193 z"
         style="fill:#7a542e;fill-opacity:1;stroke:none"
         inkscape:connector-curvature="0" />
    </g>
    <g
       id="g9286"
       transform="translate(-514.79496,1348.5096)">
      <path
         inkscape:connector-curvature="0"
         style="color:#000000;fill:#502d16;stroke:none;stroke-width:1;marker:none;visibility:visible;display:inline;overflow:visible;enable-background:accumulate"
         d="m 865.60094,-852.469 24.3349,21.47598 -54.87584,62.181 -24.3349,-21.47598 z"
         id="path8551"
         sodipodi:nodetypes="ccccc" />
      <path
         style="color:#000000;fill:#436fa6;fill-opacity:1;stroke:none;stroke-width:1;marker:none;visibility:visible;display:inline;overflow:visible;enable-background:accumulate"
         d="m 1008.1957,-991.92189 18.7655,77.74419 -144.70985,104.63422 -29.15831,-29.49689 77.32655,-147.71712 z"
         id="path8553"
         inkscape:connector-curvature="0"
         sodipodi:nodetypes="cccccc" />
      <path
         sodipodi:nodetypes="ccccc"
         inkscape:connector-curvature="0"
         id="path8555"
         d="m 958.43497,-935.40453 -92.42605,111.52682 -19.53276,-21.00218 86.25686,-153.6593 z"
         style="color:#000000;fill:#c5e0fe;fill-opacity:1;stroke:none;stroke-width:1;marker:none;visibility:visible;display:inline;overflow:visible;enable-background:accumulate" />
      <path
         sodipodi:nodetypes="ccccc"
         inkscape:connector-curvature="0"
         id="path8557"
         d="m 1024.3196,-1008.1037 2.6416,93.926 -65.52797,-22.62232 -28.30013,-61.38609 z"
         style="color:#000000;fill:#6188b6;fill-opacity:1;stroke:none;stroke-width:1;marker:none;visibility:visible;display:inline;overflow:visible;enable-background:accumulate" />
      <path
         style="color:#000000;fill:#ffffff;fill-opacity:1;stroke:none;stroke-width:1;marker:none;visibility:visible;display:inline;overflow:visible;enable-background:accumulate"
         d="m 933.29239,-998.21898 -0.14945,0.0397 -0.24421,0.47112 22.36084,65.52826 -90.26993,97.07199 7.8167,6.89837 85.2564,-101.49651 c 0.0174,-0.0218 59.02206,13.50197 68.37316,15.91939 l 0.5223,-0.39739 -0.01,-0.12111 -64.4415,-23.26436 z"
         id="path8559"
         inkscape:connector-curvature="0"
         sodipodi:nodetypes="cccccccccccc" />
      <path
         sodipodi:nodetypes="cccccccc"
         inkscape:connector-curvature="0"
         id="path8561"
         d="m 846.94541,-855.22385 48.04324,42.399 0.35535,12.0766 -15.45647,-12.93482 -20.59223,-7.11579 -9.62081,-19.54776 -14.75616,-13.72835 z"
         style="color:#000000;fill:#904d00;fill-opacity:1;stroke:none;stroke-width:1;marker:none;visibility:visible;display:inline;overflow:visible;enable-background:accumulate" />
      <path
         sodipodi:nodetypes="cccccccc"
         inkscape:connector-curvature="0"
         id="path8563"
         d="m 829.49132,-840.34272 11.67167,7.7843 12.34706,17.94173 19.05474,9.77092 9.82825,11.18976 13.52273,-3.59311 -64.5405,-56.95813 z"
         style="color:#000000;fill:#904d00;fill-opacity:1;stroke:none;stroke-width:1;marker:none;visibility:visible;display:inline;overflow:visible;enable-background:accumulate" />
      <path
         style="color:#000000;fill:#e89a00;fill-opacity:1;stroke:none;stroke-width:1;marker:none;visibility:visible;display:inline;overflow:visible;enable-background:accumulate"
         d="m 843.82401,-854.98418 51.31491,45.28632 0.77693,12.44865 -16.48523,-13.84272 -21.62088,-8.0236 -10.64947,-20.45556 -15.78492,-14.63625 z"
         id="path8565"
         inkscape:connector-curvature="0"
         sodipodi:nodetypes="cccccccc" />
      <path
         style="color:#000000;fill:#9f4f1e;fill-opacity:1;fill-rule:nonzero;stroke:none;stroke-width:1;marker:none;visibility:visible;display:inline;overflow:visible;enable-background:accumulate"
         d="m 843.61404,-823.81286 -26.80332,30.37142 c 11.93296,8.30716 25.77187,9.25755 32.49164,1.64323 6.71978,-7.61433 4.03801,-21.20711 -5.68832,-32.01465 z"
         id="path8567"
         inkscape:connector-curvature="0" />
      <path
         sodipodi:nodetypes="cccccc"
         inkscape:connector-curvature="0"
         id="path8569"
         d="m 843.82401,-854.98418 51.31491,45.28632 -23.48193,-12.84546 -13.84725,3.42779 1.67955,-14.16601 z"
         style="color:#000000;fill:#ffee62;fill-opacity:1;stroke:none;stroke-width:1;marker:none;visibility:visible;display:inline;overflow:visible;enable-background:accumulate" />
      <path
         style="color:#000000;fill:#502d16;fill-opacity:1;stroke:none;stroke-width:1px;marker:none;visibility:visible;display:inline;overflow:visible;enable-background:accumulate"
         d="m 859.49586,-796.49428 -24.58326,-21.22938 -0.11554,0.13092 c 5.42344,8.82778 14.90947,16.16681 24.00553,21.88401 z m -11.43888,12.96164 -24.55438,-21.2621 -0.11554,0.13092 c 5.42261,8.82872 14.88698,16.19229 23.97665,21.91673 z"
         id="path8571"
         inkscape:connector-curvature="0"
         sodipodi:nodetypes="cccccccccc" />
      <path
         inkscape:connector-curvature="0"
         id="path8573"
         d="m 860.15611,-797.24243 -24.58326,-21.22938 -0.11554,0.13093 c 5.42345,8.82777 14.90948,16.16679 24.00554,21.884 z m -11.43888,12.96164 -24.55437,-21.26211 -0.11554,0.13092 c 5.4226,8.82873 14.88698,16.19229 23.97665,21.91675 z"
         style="color:#000000;fill:#d17339;fill-opacity:1;stroke:none;stroke-width:1px;marker:none;visibility:visible;display:inline;overflow:visible;enable-background:accumulate"
         sodipodi:nodetypes="cccccccccc" />
      <path
         id="path8577"
         d="m 1547.2934,801.4693 c 0,9.96085 -13.0654,18.03571 -29.1824,18.03571 -16.117,0 -29.1824,-8.07486 -29.1824,-18.03571 0,-9.96085 13.0654,-18.03572 29.1824,-18.03572 16.117,0 29.1824,8.07487 29.1824,18.03572 z"
         style="color:#000000;fill:#ad5904;fill-opacity:1;fill-rule:nonzero;stroke:none;stroke-width:1;marker:none;visibility:visible;display:inline;overflow:visible;enable-background:accumulate"
         transform="matrix(0.62968102,0.55570465,-0.75313597,0.85339474,466.09153,-2302.0528)"
         inkscape:connector-curvature="0" />
      <path
         id="path8579"
         d="m 1547.2934,801.4693 c 0,9.96085 -13.0654,18.03571 -29.1824,18.03571 -16.117,0 -29.1824,-8.07486 -29.1824,-18.03571 0,-9.96085 13.0654,-18.03572 29.1824,-18.03572 16.117,0 29.1824,8.07487 29.1824,18.03572 z"
         style="color:#000000;fill:#e89a00;fill-opacity:1;fill-rule:nonzero;stroke:none;stroke-width:1;marker:none;visibility:visible;display:inline;overflow:visible;enable-background:accumulate"
         transform="matrix(0.51023987,0.45029572,-0.61027724,0.69151841,534.0238,-2013.5427)"
         inkscape:connector-curvature="0" />
      <path
         id="path8581"
         d="m 1547.2934,801.4693 c 0,9.96085 -13.0654,18.03571 -29.1824,18.03571 -16.117,0 -29.1824,-8.07486 -29.1824,-18.03571 0,-9.96085 13.0654,-18.03572 29.1824,-18.03572 16.117,0 29.1824,8.07487 29.1824,18.03572 z"
         style="color:#000000;fill:#ffee62;fill-opacity:1;fill-rule:nonzero;stroke:none;stroke-width:1;marker:none;visibility:visible;display:inline;overflow:visible;enable-background:accumulate"
         transform="matrix(0.22639215,0.19979508,-0.34064473,0.38599195,746.80306,-1396.212)"
         inkscape:connector-curvature="0" />
    </g>
    <g
       id="g14382"
       transform="matrix(4.3228022,0,0,4.3228022,418.7916,-1851.216)"
       inkscape:export-filename="G:\_PROJECTS\Stock Packs\2016\Castle Pack\Pack\game_items_pack\PNG\256px\Potions\potion_2_empty.png"
       inkscape:export-xdpi="90"
       inkscape:export-ydpi="90">
      <path
         sodipodi:nodetypes="cczszc"
         inkscape:connector-curvature="0"
         id="path7812"
         d="m 72.16773,429.20821 11.85944,0 c 0,0 12.59055,38.79806 11.85945,39.99746 -0.7311,1.1993 -9.25536,3.7242 -17.78895,3.7343 -8.36248,0.01 -16.73393,-2.47 -17.78939,-3.7343 -1.05547,-1.2644 11.85945,-39.99746 11.85945,-39.99746 z"
         style="fill:#d5f8ff;fill-opacity:1;stroke:none" />
      <path
         inkscape:connector-curvature="0"
         id="rect14377"
         d="m 63.941298,454.34375 c -2.381644,7.70181 -4.252863,14.36497 -3.82247,14.875 1.066966,1.2643 9.521445,3.72875 17.975084,3.71875 8.626616,-0.0101 17.236015,-2.51945 17.975085,-3.71875 0.298597,-0.48458 -1.610105,-7.15415 -3.980423,-14.875 l -28.147276,0 z"
         style="color:#000000;fill:#4cb4ff;fill-opacity:1;fill-rule:nonzero;stroke:none;stroke-width:5;marker:none;visibility:visible;display:inline;overflow:visible;enable-background:accumulate" />
      <path
         style="fill:#89ceff;fill-opacity:1;stroke:none"
         d="m 73.03932,433.15539 10.11173,0 c 0,0 10.73509,33.49608 10.11174,34.51998 -0.62336,1.0238 -7.89141,3.1793 -15.16742,3.188 -7.13011,0.01 -14.26786,-2.1086 -15.16778,-3.188 -0.89993,-1.0794 10.11173,-34.51998 10.11173,-34.51998 z"
         id="path9432"
         inkscape:connector-curvature="0"
         sodipodi:nodetypes="cczszc" />
      <path
         sodipodi:nodetypes="cczszc"
         inkscape:connector-curvature="0"
         id="path14370"
         d="m 75.050017,433.15539 6.085608,0 c 0,0 9.894276,33.49608 9.383583,34.51998 -0.510701,1.0238 -6.465208,3.1793 -12.426235,3.188 -5.841496,0.01 -11.689252,-2.1086 -12.42653,-3.188 -0.737287,-1.0794 9.383574,-34.51998 9.383574,-34.51998 z"
         style="fill:#4cb4ff;fill-opacity:1;stroke:none" />
      <g
         transform="translate(-736.86008,-560.04453)"
         id="g9490">
        <path
           sodipodi:type="arc"
           style="color:#000000;fill:#effcff;fill-opacity:1;fill-rule:nonzero;stroke:none;stroke-width:1;marker:none;visibility:visible;display:inline;overflow:visible;enable-background:accumulate"
           id="path9451"
           sodipodi:cx="839.9455"
           sodipodi:cy="1022.2935"
           sodipodi:rx="6.5280738"
           sodipodi:ry="6.1324329"
           d="m 846.47357,1022.2935 c 0,3.3869 -2.92272,6.1325 -6.52807,6.1325 -3.60536,0 -6.52808,-2.7456 -6.52808,-6.1325 0,-3.3868 2.92272,-6.1324 6.52808,-6.1324 3.60535,0 6.52807,2.7456 6.52807,6.1324 z"
           transform="matrix(0.62480841,0,0,0.48775365,296.14211,513.27362)" />
        <path
           transform="matrix(0.33200396,0,0,0.25782438,544.6199,756.35067)"
           d="m 846.47357,1022.2935 c 0,3.3869 -2.92272,6.1325 -6.52807,6.1325 -3.60536,0 -6.52808,-2.7456 -6.52808,-6.1325 0,-3.3868 2.92272,-6.1324 6.52808,-6.1324 3.60535,0 6.52807,2.7456 6.52807,6.1324 z"
           sodipodi:ry="6.1324329"
           sodipodi:rx="6.5280738"
           sodipodi:cy="1022.2935"
           sodipodi:cx="839.9455"
           id="path9453"
           style="color:#000000;fill:#effcff;fill-opacity:1;fill-rule:nonzero;stroke:none;stroke-width:1;marker:none;visibility:visible;display:inline;overflow:visible;enable-background:accumulate"
           sodipodi:type="arc" />
      </g>
      <g
         transform="translate(50.821304,0)"
         id="g14361">
        <rect
           ry="4.9691534"
           rx="3.1259866"
           y="421.12234"
           x="11.79984"
           height="12.08713"
           width="30.921923"
           id="rect14312"
           style="fill:#d5f8ff;fill-opacity:1;stroke:none" />
        <rect
           style="fill:#89ceff;fill-opacity:1;stroke:none"
           id="rect14314"
           width="26.931349"
           height="10.527248"
           x="13.79514"
           y="421.90228"
           rx="2.7225683"
           ry="4.3278689" />
        <rect
           ry="3.2931328"
           rx="2.4369631"
           y="424.43207"
           x="15.20773"
           height="8.0103226"
           width="24.106176"
           id="rect14316"
           style="fill:#4cb4ff;fill-opacity:1;stroke:none" />
        <path
           id="path14318"
           d="m 37.46947,415.8135 c -0.26189,0.0954 -0.53267,0.1918 -0.87332,0.27852 -0.43054,0.10959 -0.92148,0.21364 -1.46343,0.30684 -0.54193,0.0932 -1.13299,0.17616 -1.77026,0.25022 -0.63729,0.074 -1.31807,0.13669 -2.03465,0.18882 -0.71656,0.0521 -1.46727,0.0906 -2.24706,0.11801 -0.7798,0.0274 -1.59005,0.0425 -2.41702,0.0425 -0.82696,0 -1.63249,-0.0149 -2.4123,-0.0425 -0.77979,-0.0274 -1.53521,-0.0659 -2.25177,-0.11801 -0.71658,-0.0522 -1.39736,-0.11479 -2.03465,-0.18882 -0.63727,-0.0741 -1.22833,-0.157 -1.77026,-0.25022 -0.54195,-0.0932 -1.03291,-0.19725 -1.46343,-0.30684 -0.30737,-0.0782 -0.54479,-0.1648 -0.78837,-0.2502 -0.23532,1.91711 0.22216,4.87329 0.91329,7.18732 1.54836,5.18427 5.85974,12.37358 10.16554,12.37358 4.58831,0 8.18868,-7.25942 9.60052,-12.37358 0.64443,-2.33442 1.02296,-5.35795 0.84717,-7.21564 z"
           style="fill:#592e09;fill-opacity:1;stroke:none"
           inkscape:connector-curvature="0"
           sodipodi:nodetypes="ccsccsscccsccsssc" />
        <path
           style="fill:#d5f8ff;fill-opacity:1;stroke:none"
           d="m 14.92398,421.12429 c -1.73179,0 -3.12344,2.21316 -3.12344,4.96608 l 0,2.15114 c 0,2.75291 1.39165,4.96607 3.12344,4.96607 l 6.16711,0 6.1671,0 6.16711,0 6.16711,0 c 1.73179,0 3.12867,-2.21316 3.12867,-4.96607 l 0,-2.15114 c 0,-2.75292 -1.39688,-4.96608 -3.12867,-4.96608 z m 2.25338,1.16924 c 0.0431,-0.004 0.0872,0 0.13083,0 l 19.90001,0 c 1.39688,0 2.51961,1.7867 2.51961,4.00722 l 0,1.73037 c 0,2.22052 -1.12273,4.00723 -2.51961,4.00723 l -4.975,0 -4.97501,0 -4.975,0 -4.975,0 c -1.39688,0 -2.51961,-1.78671 -2.51961,-4.00723 l 0,-1.73037 c 0,-2.15112 1.05285,-3.90027 2.38878,-4.00722 z"
           id="path14320"
           inkscape:connector-curvature="0"
           sodipodi:nodetypes="sssscccssssscssssscccsssc" />
        <path
           transform="matrix(0.15508752,0,0,0.1235973,-887.69348,549.21051)"
           d="m 5965.961,-1079.5648 c 0,9.2052 -31.4321,16.6675 -70.2056,16.6675 -38.7735,0 -70.2056,-7.4623 -70.2056,-16.6675 0,-9.2052 31.4321,-16.6675 70.2056,-16.6675 38.7735,0 70.2056,7.4623 70.2056,16.6675 z"
           sodipodi:ry="16.667517"
           sodipodi:rx="70.205605"
           sodipodi:cy="-1079.5648"
           sodipodi:cx="5895.7554"
           id="path14322"
           style="fill:#984d0b;fill-opacity:1;stroke:none"
           sodipodi:type="arc" />
        <path
           sodipodi:type="arc"
           style="color:#000000;fill:#effcff;fill-opacity:1;fill-rule:nonzero;stroke:none;stroke-width:1;marker:none;visibility:visible;display:inline;overflow:visible;enable-background:accumulate"
           id="path14324"
           sodipodi:cx="413.57144"
           sodipodi:cy="374.50504"
           sodipodi:rx="34.285713"
           sodipodi:ry="13.571428"
           d="m 447.85715,374.50504 c 0,7.49529 -15.35023,13.57142 -34.28571,13.57142 -18.93547,0 -34.28571,-6.07613 -34.28571,-13.57142 0,-7.4953 15.35024,-13.57143 34.28571,-13.57143 18.93548,0 34.28571,6.07613 34.28571,13.57143 z"
           transform="matrix(0.10797773,0,0,0.18034034,-24.562021,360.25068)" />
      </g>
      <path
         id="path14372"
         transform="translate(-4.9229925e-6,0)"
         d="m 78.5,463.40625 c -4.529714,0 -8.794769,0.7066 -12.53125,1.9375 -0.280106,1.29587 -0.418426,2.18867 -0.3125,2.34375 0.737278,1.0794 6.596004,3.1975 12.4375,3.1875 5.961027,-0.009 11.926799,-2.1637 12.4375,-3.1875 0.07762,-0.15563 -0.16815,-1.23192 -0.5,-2.65625 -3.494608,-1.03863 -7.394205,-1.625 -11.53125,-1.625 z"
         style="color:#000000;fill:#006dff;fill-opacity:1;fill-rule:nonzero;stroke:none;stroke-width:5;marker:none;visibility:visible;display:inline;overflow:visible;enable-background:accumulate"
         inkscape:connector-curvature="0" />
    </g>
    <g
       id="g8382"
       transform="translate(125.20504,-796.2214)">
      <g
         inkscape:export-ydpi="90"
         inkscape:export-xdpi="90"
         inkscape:export-filename="G:\_PROJECTS\Stock Packs\2016\Castle Pack\Pack\game_items_pack\PNG\256px\Potions\potion_12.png"
         id="g14588"
         transform="matrix(4.3228022,0,0,4.3228022,435.65356,-1054.9946)">
        <path
           sodipodi:nodetypes="cczszc"
           inkscape:connector-curvature="0"
           id="path14590"
           d="m 108.70262,429.20821 11.85944,0 c 0,0 12.59055,38.79806 11.85945,39.99746 -0.7311,1.1993 -9.25536,3.7242 -17.78895,3.7343 -8.36248,0.01 -16.733934,-2.47 -17.789394,-3.7343 -1.05547,-1.2644 11.859454,-39.99746 11.859454,-39.99746 z"
           style="fill:#d5f8ff;fill-opacity:1;stroke:none" />
        <path
           inkscape:connector-curvature="0"
           id="path14592"
           d="m 100.47618,454.34375 c -2.38164,7.70181 -4.252859,14.36497 -3.822466,14.875 1.066966,1.2643 9.521446,3.72875 17.975086,3.71875 8.62661,-0.0101 17.23601,-2.51945 17.97508,-3.71875 0.2986,-0.48458 -1.6101,-7.15415 -3.98042,-14.875 l -28.14728,0 z"
           style="color:#000000;fill:#4cb4ff;fill-opacity:1;fill-rule:nonzero;stroke:none;stroke-width:5;marker:none;visibility:visible;display:inline;overflow:visible;enable-background:accumulate" />
        <path
           style="fill:#89ceff;fill-opacity:1;stroke:none"
           d="m 109.57421,433.15539 10.11173,0 c 0,0 10.73509,33.49608 10.11174,34.51998 -0.62336,1.0238 -7.89141,3.1793 -15.16742,3.188 -7.13011,0.01 -14.26786,-2.1086 -15.167784,-3.188 -0.89993,-1.0794 10.111734,-34.51998 10.111734,-34.51998 z"
           id="path14594"
           inkscape:connector-curvature="0"
           sodipodi:nodetypes="cczszc" />
        <path
           sodipodi:nodetypes="cczszc"
           inkscape:connector-curvature="0"
           id="path14596"
           d="m 111.5849,433.15539 6.08561,0 c 0,0 9.89428,33.49608 9.38358,34.51998 -0.5107,1.0238 -6.4652,3.1793 -12.42623,3.188 -5.8415,0.01 -11.68925,-2.1086 -12.42653,-3.188 -0.73729,-1.0794 9.38357,-34.51998 9.38357,-34.51998 z"
           style="fill:#4cb4ff;fill-opacity:1;stroke:none" />
        <path
           inkscape:connector-curvature="0"
           style="color:#000000;fill:#c05df5;fill-opacity:1;stroke:none;stroke-width:1px;marker:none;visibility:visible;display:inline;overflow:visible;enable-background:accumulate"
           d="m 114.15625,442.9375 c -2.67789,-0.0575 -4.87234,0.52914 -5.875,1.4375 -0.004,0.0127 -0.0275,0.0185 -0.0312,0.0312 -0.15738,0.53709 -0.30725,1.00861 -0.46875,1.5625 -0.41521,1.424 -0.73287,2.55604 -1.15625,4.03125 -0.53097,1.85009 -1.06736,3.69083 -1.5625,5.46875 -0.35893,1.28884 -0.6532,2.41984 -0.96875,3.59375 -0.12783,0.47418 -0.28782,0.98929 -0.40625,1.4375 -0.20392,0.7745 -0.39253,1.57166 -0.5625,2.25 -0.0246,0.0979 -0.0699,0.21681 -0.0937,0.3125 -0.0839,0.33813 -0.1767,0.72354 -0.25,1.03125 -0.32462,1.36269 -0.5265,2.42281 -0.59375,3.03125 -0.0119,0.11509 -0.0309,0.2315 -0.0312,0.3125 7.4e-4,0.10929 0.006,0.21323 0.0312,0.25 0.0893,0.13081 0.26964,0.2818 0.5,0.4375 0.007,0.005 0.0239,-0.005 0.0312,0 0.72561,0.48364 2.06804,1.06501 3.78125,1.5625 2.28428,0.66332 5.20425,1.1925 8.125,1.1875 0.74513,-0.001 1.48444,-0.032 2.21875,-0.0937 1.46861,-0.12354 2.88962,-0.36681 4.1875,-0.65625 0.64894,-0.14472 1.26935,-0.30177 1.84375,-0.46875 2.01039,-0.58445 3.5194,-1.27705 4.03125,-1.78125 0.0731,-0.072 0.12433,-0.12351 0.15625,-0.1875 0.0319,-0.064 0.0132,-0.26092 -0.0312,-0.5625 -0.003,-0.0225 0.004,-0.07 0,-0.0937 -0.0439,-0.27458 -0.12847,-0.70754 -0.21875,-1.125 -0.0205,-0.0937 -0.0712,-0.27497 -0.0937,-0.375 -0.21137,-0.93236 -0.54911,-2.31276 -0.90625,-3.6875 -0.0917,-0.35183 -0.21357,-0.81401 -0.3125,-1.1875 -0.34536,-1.30121 -0.77634,-2.85223 -1.1875,-4.34375 -0.52961,-1.92126 -1.0816,-3.97058 -1.65625,-6 -0.0271,-0.0956 -0.0666,-0.18565 -0.0937,-0.28125 -0.31725,-1.11932 -0.56133,-1.96644 -0.875,-3.0625 -0.20165,-0.70461 -0.36626,-1.28652 -0.5625,-1.96875 -1.24416,-1.14952 -3.96626,-1.99808 -6.96875,-2.0625 z"
           id="path14598" />
        <g
           transform="translate(-700.32519,-560.04453)"
           id="g14600">
          <path
             sodipodi:type="arc"
             style="color:#000000;fill:#effcff;fill-opacity:1;fill-rule:nonzero;stroke:none;stroke-width:1;marker:none;visibility:visible;display:inline;overflow:visible;enable-background:accumulate"
             id="path14602"
             sodipodi:cx="839.9455"
             sodipodi:cy="1022.2935"
             sodipodi:rx="6.5280738"
             sodipodi:ry="6.1324329"
             d="m 846.47357,1022.2935 c 0,3.3869 -2.92272,6.1325 -6.52807,6.1325 -3.60536,0 -6.52808,-2.7456 -6.52808,-6.1325 0,-3.3868 2.92272,-6.1324 6.52808,-6.1324 3.60535,0 6.52807,2.7456 6.52807,6.1324 z"
             transform="matrix(0.62480841,0,0,0.48775365,296.14211,513.27362)" />
          <path
             transform="matrix(0.33200396,0,0,0.25782438,544.6199,756.35067)"
             d="m 846.47357,1022.2935 c 0,3.3869 -2.92272,6.1325 -6.52807,6.1325 -3.60536,0 -6.52808,-2.7456 -6.52808,-6.1325 0,-3.3868 2.92272,-6.1324 6.52808,-6.1324 3.60535,0 6.52807,2.7456 6.52807,6.1324 z"
             sodipodi:ry="6.1324329"
             sodipodi:rx="6.5280738"
             sodipodi:cy="1022.2935"
             sodipodi:cx="839.9455"
             id="path14604"
             style="color:#000000;fill:#effcff;fill-opacity:1;fill-rule:nonzero;stroke:none;stroke-width:1;marker:none;visibility:visible;display:inline;overflow:visible;enable-background:accumulate"
             sodipodi:type="arc" />
        </g>
        <g
           transform="translate(87.35619,0)"
           id="g14606">
          <rect
             ry="4.9691534"
             rx="3.1259866"
             y="421.12234"
             x="11.79984"
             height="12.08713"
             width="30.921923"
             id="rect14608"
             style="fill:#d5f8ff;fill-opacity:1;stroke:none" />
          <rect
             style="fill:#89ceff;fill-opacity:1;stroke:none"
             id="rect14610"
             width="26.931349"
             height="10.527248"
             x="13.79514"
             y="421.90228"
             rx="2.7225683"
             ry="4.3278689" />
          <rect
             ry="3.2931328"
             rx="2.4369631"
             y="424.43207"
             x="15.20773"
             height="8.0103226"
             width="24.106176"
             id="rect14612"
             style="fill:#4cb4ff;fill-opacity:1;stroke:none" />
          <path
             id="path14614"
             d="m 37.46947,415.8135 c -0.26189,0.0954 -0.53267,0.1918 -0.87332,0.27852 -0.43054,0.10959 -0.92148,0.21364 -1.46343,0.30684 -0.54193,0.0932 -1.13299,0.17616 -1.77026,0.25022 -0.63729,0.074 -1.31807,0.13669 -2.03465,0.18882 -0.71656,0.0521 -1.46727,0.0906 -2.24706,0.11801 -0.7798,0.0274 -1.59005,0.0425 -2.41702,0.0425 -0.82696,0 -1.63249,-0.0149 -2.4123,-0.0425 -0.77979,-0.0274 -1.53521,-0.0659 -2.25177,-0.11801 -0.71658,-0.0522 -1.39736,-0.11479 -2.03465,-0.18882 -0.63727,-0.0741 -1.22833,-0.157 -1.77026,-0.25022 -0.54195,-0.0932 -1.03291,-0.19725 -1.46343,-0.30684 -0.30737,-0.0782 -0.54479,-0.1648 -0.78837,-0.2502 -0.23532,1.91711 0.22216,4.87329 0.91329,7.18732 1.54836,5.18427 5.85974,12.37358 10.16554,12.37358 4.58831,0 8.18868,-7.25942 9.60052,-12.37358 0.64443,-2.33442 1.02296,-5.35795 0.84717,-7.21564 z"
             style="fill:#592e09;fill-opacity:1;stroke:none"
             inkscape:connector-curvature="0"
             sodipodi:nodetypes="ccsccsscccsccsssc" />
          <path
             style="fill:#d5f8ff;fill-opacity:1;stroke:none"
             d="m 14.92398,421.12429 c -1.73179,0 -3.12344,2.21316 -3.12344,4.96608 l 0,2.15114 c 0,2.75291 1.39165,4.96607 3.12344,4.96607 l 6.16711,0 6.1671,0 6.16711,0 6.16711,0 c 1.73179,0 3.12867,-2.21316 3.12867,-4.96607 l 0,-2.15114 c 0,-2.75292 -1.39688,-4.96608 -3.12867,-4.96608 z m 2.25338,1.16924 c 0.0431,-0.004 0.0872,0 0.13083,0 l 19.90001,0 c 1.39688,0 2.51961,1.7867 2.51961,4.00722 l 0,1.73037 c 0,2.22052 -1.12273,4.00723 -2.51961,4.00723 l -4.975,0 -4.97501,0 -4.975,0 -4.975,0 c -1.39688,0 -2.51961,-1.78671 -2.51961,-4.00723 l 0,-1.73037 c 0,-2.15112 1.05285,-3.90027 2.38878,-4.00722 z"
             id="path14616"
             inkscape:connector-curvature="0"
             sodipodi:nodetypes="sssscccssssscssssscccsssc" />
          <path
             transform="matrix(0.15508752,0,0,0.1235973,-887.69348,549.21051)"
             d="m 5965.961,-1079.5648 c 0,9.2052 -31.4321,16.6675 -70.2056,16.6675 -38.7735,0 -70.2056,-7.4623 -70.2056,-16.6675 0,-9.2052 31.4321,-16.6675 70.2056,-16.6675 38.7735,0 70.2056,7.4623 70.2056,16.6675 z"
             sodipodi:ry="16.667517"
             sodipodi:rx="70.205605"
             sodipodi:cy="-1079.5648"
             sodipodi:cx="5895.7554"
             id="path14618"
             style="fill:#984d0b;fill-opacity:1;stroke:none"
             sodipodi:type="arc" />
          <path
             sodipodi:type="arc"
             style="color:#000000;fill:#effcff;fill-opacity:1;fill-rule:nonzero;stroke:none;stroke-width:1;marker:none;visibility:visible;display:inline;overflow:visible;enable-background:accumulate"
             id="path14620"
             sodipodi:cx="413.57144"
             sodipodi:cy="374.50504"
             sodipodi:rx="34.285713"
             sodipodi:ry="13.571428"
             d="m 447.85715,374.50504 c 0,7.49529 -15.35023,13.57142 -34.28571,13.57142 -18.93547,0 -34.28571,-6.07613 -34.28571,-13.57142 0,-7.4953 15.35024,-13.57143 34.28571,-13.57143 18.93548,0 34.28571,6.07613 34.28571,13.57143 z"
             transform="matrix(0.10797773,0,0,0.18034034,-24.562021,360.25068)" />
        </g>
        <path
           id="path14622"
           d="m 115.03488,463.40625 c -4.52971,0 -8.79477,0.7066 -12.53125,1.9375 -0.28011,1.29587 -0.41842,2.18867 -0.3125,2.34375 0.73728,1.0794 6.596,3.1975 12.4375,3.1875 5.96103,-0.009 11.9268,-2.1637 12.4375,-3.1875 0.0776,-0.15563 -0.16815,-1.23192 -0.5,-2.65625 -3.49461,-1.03863 -7.3942,-1.625 -11.53125,-1.625 z"
           style="color:#000000;fill:#690bc5;fill-opacity:1;fill-rule:nonzero;stroke:none;stroke-width:5;marker:none;visibility:visible;display:inline;overflow:visible;enable-background:accumulate"
           inkscape:connector-curvature="0" />
      </g>
    </g>
    <g
       id="g8528"
       transform="translate(80.584916,-91.125069)">
      <path
         style="color:#000000;fill:#5dcc0e;fill-opacity:1;fill-rule:nonzero;stroke:none;stroke-width:5;marker:none;visibility:visible;display:inline;overflow:visible;enable-background:accumulate"
         d="M 279.10586,156.33514 375.72405,28.335139 472.34237,156.33514 375.72405,264.57219 z"
         id="path9854"
         inkscape:connector-curvature="0"
         sodipodi:nodetypes="ccccc" />
      <path
         sodipodi:nodetypes="cccc"
         inkscape:connector-curvature="0"
         id="path9856"
         d="m 279.10586,156.33514 193.23651,0 -96.61832,128 z"
         style="color:#000000;fill:#009d39;fill-opacity:1;fill-rule:nonzero;stroke:none;stroke-width:5;marker:none;visibility:visible;display:inline;overflow:visible;enable-background:accumulate" />
      <path
         style="color:#000000;fill:#5dcc0e;fill-opacity:1;fill-rule:nonzero;stroke:none;stroke-width:5;marker:none;visibility:visible;display:inline;overflow:visible;enable-background:accumulate"
         d="m 335.92023,156.33514 79.60777,0 -39.8039,128 z"
         id="path9858"
         inkscape:connector-curvature="0"
         sodipodi:nodetypes="cccc" />
      <path
         sodipodi:nodetypes="cccc"
         inkscape:connector-curvature="0"
         id="path9860"
         d="m 335.92023,156.33514 79.60777,0 -39.8039,-128.000001 z"
         style="color:#000000;fill:#c8fea4;fill-opacity:1;fill-rule:nonzero;stroke:none;stroke-width:5;marker:none;visibility:visible;display:inline;overflow:visible;enable-background:accumulate" />
      <path
         sodipodi:nodetypes="ccccccc"
         inkscape:connector-curvature="0"
         id="path9862"
         d="m 327.19317,155.94801 48.53088,-127.612871 -33.6961,122.691451 72.93514,5.30855 -75.11508,4.53433 35.87604,123.46567 z"
         style="color:#000000;fill:#ffffff;fill-opacity:1;fill-rule:nonzero;stroke:none;stroke-width:5;marker:none;visibility:visible;display:inline;overflow:visible;enable-background:accumulate" />
    </g>
    <g
       id="g8535"
       transform="translate(-10.794982,12.509631)">
      <path
         style="color:#000000;fill:#ff5a00;fill-opacity:1;fill-rule:nonzero;stroke:none;stroke-width:5;marker:none;visibility:visible;display:inline;overflow:visible;enable-background:accumulate"
         d="M 70.485765,52.700441 167.10395,-75.299561 263.72227,52.700441 167.10395,167.5023 z"
         id="path11066"
         inkscape:connector-curvature="0"
         sodipodi:nodetypes="ccccc" />
      <path
         sodipodi:nodetypes="cccc"
         inkscape:connector-curvature="0"
         id="path11068"
         d="m 70.485765,52.700441 193.236505,0 -96.61832,127.999999 z"
         style="color:#000000;fill:#7c0201;fill-opacity:1;fill-rule:nonzero;stroke:none;stroke-width:5;marker:none;visibility:visible;display:inline;overflow:visible;enable-background:accumulate" />
      <path
         style="color:#000000;fill:#ff5a00;fill-opacity:1;fill-rule:nonzero;stroke:none;stroke-width:5;marker:none;visibility:visible;display:inline;overflow:visible;enable-background:accumulate"
         d="m 127.30013,52.700441 79.60777,0 -39.8039,127.999999 z"
         id="path11070"
         inkscape:connector-curvature="0"
         sodipodi:nodetypes="cccc" />
      <path
         sodipodi:nodetypes="cccc"
         inkscape:connector-curvature="0"
         id="path11072"
         d="m 127.30013,52.700441 79.60777,0 -39.8039,-128.000002 z"
         style="color:#000000;fill:#ffc075;fill-opacity:1;fill-rule:nonzero;stroke:none;stroke-width:5;marker:none;visibility:visible;display:inline;overflow:visible;enable-background:accumulate" />
      <path
         sodipodi:nodetypes="ccccccc"
         inkscape:connector-curvature="0"
         id="path11074"
         d="m 118.57307,52.313306 48.53088,-127.612867 -33.6961,122.691452 72.93514,5.30855 -75.11508,4.534324 35.87604,123.465675 z"
         style="color:#000000;fill:#ffffff;fill-opacity:1;fill-rule:nonzero;stroke:none;stroke-width:5;marker:none;visibility:visible;display:inline;overflow:visible;enable-background:accumulate" />
    </g>
    <g
       id="g11159"
       transform="translate(-1906.795,-24.050649)">
      <path
         style="color:#000000;fill:#4cb4ff;fill-opacity:1;stroke:none;stroke-width:1;marker:none;visibility:visible;display:inline;overflow:visible;enable-background:accumulate"
         d="m 2035.3016,811.157 74.0638,0 c -8.0339,48.79765 -3.0978,62.11383 0,90.03835 l -74.0638,0 c 5.1784,-30.01286 6.412,-60.02549 0,-90.03835 z"
         id="path10840"
         inkscape:connector-curvature="0"
         sodipodi:nodetypes="ccccc" />
      <path
         id="path10842"
         d="m -409.41318,2180.2881 c 0,16.6873 -13.52771,30.215 -30.21499,30.215 -16.68729,0 -30.215,-13.5277 -30.215,-30.215 0,-16.6873 13.52771,-30.215 30.215,-30.215 16.68728,0 30.21499,13.5277 30.21499,30.215 z"
         style="color:#000000;fill:#d5f8ff;fill-opacity:1;stroke:none;stroke-width:1.01139176;marker:none;visibility:visible;display:inline;overflow:visible;enable-background:accumulate"
         transform="matrix(2.4992897,0,0,2.2589734,3171.0922,-4002.2337)"
         inkscape:connector-curvature="0" />
      <path
         style="color:#000000;fill:#4cb4ff;fill-opacity:1;fill-rule:nonzero;stroke:none;stroke-width:5;marker:none;visibility:visible;display:inline;overflow:visible;enable-background:accumulate"
         d="m 1996.3726,929.06653 c 3.6262,35.08159 36.1396,62.49845 75.901,62.49845 39.7614,0 72.4158,-27.41686 76.0421,-62.49845 l -151.9431,0 z"
         id="path10844"
         inkscape:connector-curvature="0" />
      <path
         sodipodi:nodetypes="ccccc"
         inkscape:connector-curvature="0"
         id="path10846"
         d="m 2045.4675,811.157 53.7325,0 c -5.8287,48.79765 -2.2476,62.11383 0,90.03835 l -53.7325,0 c 3.7565,-30.01286 4.6518,-60.02549 0,-90.03835 z"
         style="color:#000000;fill:#89ceff;fill-opacity:1;stroke:none;stroke-width:1;marker:none;visibility:visible;display:inline;overflow:visible;enable-background:accumulate" />
      <path
         id="path10848"
         d="m -409.41318,2180.2881 c 0,16.6873 -13.52771,30.215 -30.21499,30.215 -16.68729,0 -30.215,-13.5277 -30.215,-30.215 0,-16.6873 13.52771,-30.215 30.215,-30.215 16.68728,0 30.21499,13.5277 30.21499,30.215 z"
         style="color:#000000;fill:#89ceff;fill-opacity:1;stroke:none;stroke-width:1.01139176;marker:none;visibility:visible;display:inline;overflow:visible;enable-background:accumulate"
         transform="matrix(2.1802315,0,0,1.9705938,3030.8249,-3373.4831)"
         inkscape:connector-curvature="0" />
      <path
         id="path10850"
         d="m -409.41318,2180.2881 c 0,16.6873 -13.52771,30.215 -30.21499,30.215 -16.68729,0 -30.215,-13.5277 -30.215,-30.215 0,-16.6873 13.52771,-30.215 30.215,-30.215 16.68728,0 30.21499,13.5277 30.21499,30.215 z"
         style="color:#000000;fill:#4cb4ff;fill-opacity:1;stroke:none;stroke-width:1.01139176;marker:none;visibility:visible;display:inline;overflow:visible;enable-background:accumulate"
         transform="matrix(1.8874304,0,0,1.7871363,2902.1013,-2962.4538)"
         inkscape:connector-curvature="0" />
      <path
         style="color:#000000;fill:#4cb4ff;fill-opacity:1;stroke:none;stroke-width:1;marker:none;visibility:visible;display:inline;overflow:visible;enable-background:accumulate"
         d="m 2055.28,811.157 34.1074,0 c -3.6998,48.79765 -1.4267,62.11383 0,90.03835 l -34.1074,0 c 2.3845,-30.01286 2.9529,-60.02549 0,-90.03835 z"
         id="path10852"
         inkscape:connector-curvature="0"
         sodipodi:nodetypes="ccccc" />
      <path
         id="rect10854"
         d="m 2017.2825,768.60553 110.1024,0 c 7.7291,0 13.9514,9.89113 13.9514,22.17742 l 0,9.59023 c 0,12.28629 -6.2223,22.17742 -13.9514,22.17742 l -110.1024,0 c -7.729,0 -13.9513,-9.89113 -13.9513,-22.17742 l 0,-9.59023 c 0,-12.28629 6.2223,-22.17742 13.9513,-22.17742 z"
         style="fill:#d5f8ff;fill-opacity:1;stroke:none"
         inkscape:connector-curvature="0" />
      <path
         id="rect10856"
         d="m 2024.3871,772.08643 95.8933,0 c 6.7316,0 12.1509,8.61464 12.1509,19.31535 l 0,8.35258 c 0,10.70071 -5.4193,19.31536 -12.1509,19.31536 l -95.8933,0 c -6.7316,0 -12.1509,-8.61465 -12.1509,-19.31536 l 0,-8.35258 c 0,-10.70071 5.4193,-19.31535 12.1509,-19.31535 z"
         style="fill:#89ceff;fill-opacity:1;stroke:none"
         inkscape:connector-curvature="0" />
      <path
         id="rect10858"
         d="m 2029.4169,783.37695 85.8338,0 c 6.0254,0 10.8762,6.555 10.8762,14.69731 l 0,6.35559 c 0,8.14231 -4.8508,14.69731 -10.8762,14.69731 l -85.8338,0 c -6.0255,0 -10.8763,-6.555 -10.8763,-14.69731 l 0,-6.35559 c 0,-8.14231 4.8508,-14.69731 10.8763,-14.69731 z"
         style="fill:#4cb4ff;fill-opacity:1;stroke:none"
         inkscape:connector-curvature="0" />
      <path
         sodipodi:nodetypes="ccsccsscccsccsssc"
         inkscape:connector-curvature="0"
         style="fill:#592e09;fill-opacity:1;stroke:none"
         d="m 2117.8952,744.91208 c -1.1688,0.42577 -2.3773,0.85601 -3.8977,1.24304 -1.9215,0.4891 -4.1125,0.95348 -6.5313,1.36943 -2.4186,0.41596 -5.0565,0.78621 -7.9007,1.11674 -2.8442,0.33026 -5.8825,0.61005 -9.0806,0.8427 -3.1981,0.23253 -6.5485,0.40435 -10.0287,0.52669 -3.4803,0.12228 -7.0964,0.18967 -10.7872,0.18967 -3.6908,0 -7.2858,-0.0665 -10.7662,-0.18967 -3.4802,-0.12229 -6.8516,-0.29412 -10.0496,-0.52669 -3.1982,-0.23296 -6.2365,-0.5123 -9.0807,-0.8427 -2.8442,-0.33071 -5.4821,-0.7007 -7.9007,-1.11674 -2.4188,-0.41595 -4.6099,-0.88033 -6.5313,-1.36943 -1.3718,-0.34901 -2.4314,-0.73551 -3.5185,-1.11665 -1.0503,8.5561 0.9915,21.74958 4.076,32.07714 6.9103,23.13748 26.1521,55.2235 45.369,55.2235 20.4777,0 36.5462,-32.39892 42.8473,-55.2235 2.8761,-10.41856 4.5654,-23.91263 3.7809,-32.20353 z"
         id="path10860" />
      <path
         sodipodi:nodetypes="sssscccssssscssssscccsssc"
         inkscape:connector-curvature="0"
         id="path10862"
         d="m 2017.2743,768.61423 c -7.729,0 -13.94,9.87737 -13.94,22.1637 l 0,9.60057 c 0,12.28629 6.211,22.16366 13.94,22.16366 l 27.5239,0 27.5239,0 27.5239,0 27.5239,0 c 7.729,0 13.9633,-9.87737 13.9633,-22.16366 l 0,-9.60057 c 0,-12.28633 -6.2343,-22.1637 -13.9633,-22.1637 z m 10.0568,5.21834 c 0.1924,-0.0179 0.3892,0 0.5839,0 l 88.8141,0 c 6.2343,0 11.2451,7.97407 11.2451,17.88429 l 0,7.72267 c 0,9.91022 -5.0108,17.88434 -11.2451,17.88434 l -22.2035,0 -22.2035,0 -22.2035,0 -22.2036,0 c -6.2343,0 -11.245,-7.97412 -11.245,-17.88434 l 0,-7.72267 c 0,-9.60049 4.6989,-17.40697 10.6611,-17.88429 z"
         style="fill:#d5f8ff;fill-opacity:1;stroke:none" />
      <path
         id="path10864"
         d="m 5965.961,-1079.5648 c 0,9.2052 -31.4321,16.6675 -70.2056,16.6675 -38.7735,0 -70.2056,-7.4623 -70.2056,-16.6675 0,-9.2052 31.4321,-16.6675 70.2056,-16.6675 38.7735,0 70.2056,7.4623 70.2056,16.6675 z"
         style="fill:#984d0b;fill-opacity:1;stroke:none"
         transform="matrix(0.6921583,0,0,0.5516169,-2011.1232,1340.2653)"
         inkscape:connector-curvature="0" />
      <path
         id="path10866"
         d="m 447.85715,374.50504 c 0,7.49529 -15.35023,13.57142 -34.28571,13.57142 -18.93547,0 -34.28571,-6.07613 -34.28571,-13.57142 0,-7.4953 15.35024,-13.57143 34.28571,-13.57143 18.93548,0 34.28571,6.07613 34.28571,13.57143 z"
         style="color:#000000;fill:#effcff;fill-opacity:1;fill-rule:nonzero;stroke:none;stroke-width:1;marker:none;visibility:visible;display:inline;overflow:visible;enable-background:accumulate"
         transform="matrix(0.48190649,0,0,0.80486208,1841.0476,496.93425)"
         inkscape:connector-curvature="0" />
      <path
         id="path10868"
         d="m 909.51777,1089.965 c 0,4.7198 -3.6349,8.5461 -8.11878,8.5461 -4.48389,0 -8.11879,-3.8263 -8.11879,-8.5461 0,-4.7199 3.6349,-8.5461 8.11879,-8.5461 4.48388,0 8.11878,3.8262 8.11878,8.5461 z"
         style="color:#000000;fill:#effcff;fill-opacity:1;fill-rule:nonzero;stroke:none;stroke-width:1;marker:none;visibility:visible;display:inline;overflow:visible;enable-background:accumulate"
         transform="matrix(2.2033499,0,0,1.7075961,114.24468,-968.74883)"
         inkscape:connector-curvature="0" />
      <path
         id="path10870"
         d="m 909.51777,1089.965 c 0,4.7198 -3.6349,8.5461 -8.11878,8.5461 -4.48389,0 -8.11879,-3.8263 -8.11879,-8.5461 0,-4.7199 3.6349,-8.5461 8.11879,-8.5461 4.48388,0 8.11878,3.8262 8.11878,8.5461 z"
         style="color:#000000;fill:#effcff;fill-opacity:1;fill-rule:nonzero;stroke:none;stroke-width:1;marker:none;visibility:visible;display:inline;overflow:visible;enable-background:accumulate"
         transform="matrix(1.1707497,0,0,0.997978,1063.9672,-163.65131)"
         inkscape:connector-curvature="0" />
      <path
         style="color:#000000;fill:#006dff;fill-opacity:1;stroke:none;stroke-width:1.01139176;marker:none;visibility:visible;display:inline;overflow:visible;enable-background:accumulate"
         d="m 2072.2744,964.0079 c -15.8329,0 -29.9952,3.14509 -40.3066,8.22869 9.0301,8.55029 21.1684,14.19065 34.5884,15.48109 1.9021,0.0942 3.7651,0.27894 5.7182,0.27894 2.0003,0 3.9109,-0.18031 5.8577,-0.27894 13.42,-1.29044 25.5582,-6.9308 34.5884,-15.48109 -10.3208,-5.11556 -24.5584,-8.22869 -40.4461,-8.22869 z"
         id="path10872"
         inkscape:connector-curvature="0" />
    </g>
    <g
       id="g11289"
       transform="translate(-2335.3016,-24.050609)">
      <path
         sodipodi:nodetypes="ccccc"
         inkscape:connector-curvature="0"
         id="path10912"
         d="m 2746.0615,811.15697 74.0638,0 c -8.0339,48.79765 -3.0978,62.11382 0,90.03834 l -74.0638,0 c 5.1785,-30.01285 6.412,-60.02548 0,-90.03834 z"
         style="color:#000000;fill:#4cb4ff;fill-opacity:1;stroke:none;stroke-width:1;marker:none;visibility:visible;display:inline;overflow:visible;enable-background:accumulate" />
      <path
         id="path10914"
         d="m -409.41318,2180.2881 c 0,16.6873 -13.52771,30.215 -30.21499,30.215 -16.68729,0 -30.215,-13.5277 -30.215,-30.215 0,-16.6873 13.52771,-30.215 30.215,-30.215 16.68728,0 30.21499,13.5277 30.21499,30.215 z"
         style="color:#000000;fill:#d5f8ff;fill-opacity:1;stroke:none;stroke-width:1.01139176;marker:none;visibility:visible;display:inline;overflow:visible;enable-background:accumulate"
         transform="matrix(2.4992897,0,0,2.2589734,3881.8522,-4002.2337)"
         inkscape:connector-curvature="0" />
      <path
         inkscape:connector-curvature="0"
         id="path10916"
         d="m 2707.1325,929.0665 c 3.6263,35.08159 36.1396,62.49844 75.901,62.49844 39.7614,0 72.4158,-27.41685 76.0421,-62.49844 l -151.9431,0 z"
         style="color:#000000;fill:#4cb4ff;fill-opacity:1;fill-rule:nonzero;stroke:none;stroke-width:5;marker:none;visibility:visible;display:inline;overflow:visible;enable-background:accumulate" />
      <path
         style="color:#000000;fill:#89ceff;fill-opacity:1;stroke:none;stroke-width:1;marker:none;visibility:visible;display:inline;overflow:visible;enable-background:accumulate"
         d="m 2756.2274,811.15697 53.7325,0 c -5.8287,48.79765 -2.2476,62.11382 0,90.03834 l -53.7325,0 c 3.7565,-30.01285 4.6518,-60.02548 0,-90.03834 z"
         id="path10918"
         inkscape:connector-curvature="0"
         sodipodi:nodetypes="ccccc" />
      <path
         id="path10920"
         d="m -409.41318,2180.2881 c 0,16.6873 -13.52771,30.215 -30.21499,30.215 -16.68729,0 -30.215,-13.5277 -30.215,-30.215 0,-16.6873 13.52771,-30.215 30.215,-30.215 16.68728,0 30.21499,13.5277 30.21499,30.215 z"
         style="color:#000000;fill:#89ceff;fill-opacity:1;stroke:none;stroke-width:1.01139176;marker:none;visibility:visible;display:inline;overflow:visible;enable-background:accumulate"
         transform="matrix(2.1802315,0,0,1.9705938,3741.5849,-3373.4831)"
         inkscape:connector-curvature="0" />
      <path
         sodipodi:nodetypes="ccccc"
         inkscape:connector-curvature="0"
         id="path10922"
         d="m 2766.04,811.15697 34.1073,0 c -3.6998,48.79765 -1.4267,62.11382 0,90.03834 l -34.1073,0 c 2.3845,-30.01285 2.9528,-60.02548 0,-90.03834 z"
         style="color:#000000;fill:#4cb4ff;fill-opacity:1;stroke:none;stroke-width:1;marker:none;visibility:visible;display:inline;overflow:visible;enable-background:accumulate" />
      <path
         id="path10924"
         d="m -409.41318,2180.2881 c 0,16.6873 -13.52771,30.215 -30.21499,30.215 -16.68729,0 -30.215,-13.5277 -30.215,-30.215 0,-16.6873 13.52771,-30.215 30.215,-30.215 16.68728,0 30.21499,13.5277 30.21499,30.215 z"
         style="color:#000000;fill:#c05df5;fill-opacity:1;stroke:none;stroke-width:1.01139176;marker:none;visibility:visible;display:inline;overflow:visible;enable-background:accumulate"
         transform="matrix(1.8874304,0,0,1.7871363,3612.8612,-2962.4538)"
         inkscape:connector-curvature="0" />
      <path
         id="rect10926"
         d="m 2728.0424,768.60559 110.1024,0 c 7.7291,0 13.9513,9.89113 13.9513,22.17742 l 0,9.59023 c 0,12.28629 -6.2222,22.17742 -13.9513,22.17742 l -110.1024,0 c -7.729,0 -13.9513,-9.89113 -13.9513,-22.17742 l 0,-9.59023 c 0,-12.28629 6.2223,-22.17742 13.9513,-22.17742 z"
         style="fill:#d5f8ff;fill-opacity:1;stroke:none"
         inkscape:connector-curvature="0" />
      <path
         id="rect10928"
         d="m 2735.147,772.08643 95.8933,0 c 6.7316,0 12.1509,8.61464 12.1509,19.31535 l 0,8.35258 c 0,10.70071 -5.4193,19.31536 -12.1509,19.31536 l -95.8933,0 c -6.7316,0 -12.1509,-8.61465 -12.1509,-19.31536 l 0,-8.35258 c 0,-10.70071 5.4193,-19.31535 12.1509,-19.31535 z"
         style="fill:#89ceff;fill-opacity:1;stroke:none"
         inkscape:connector-curvature="0" />
      <path
         id="rect10930"
         d="m 2740.1767,783.37695 85.8339,0 c 6.0254,0 10.8762,6.555 10.8762,14.69731 l 0,6.35559 c 0,8.14231 -4.8508,14.69731 -10.8762,14.69731 l -85.8339,0 c -6.0254,0 -10.8762,-6.555 -10.8762,-14.69731 l 0,-6.35559 c 0,-8.14231 4.8508,-14.69731 10.8762,-14.69731 z"
         style="fill:#4cb4ff;fill-opacity:1;stroke:none"
         inkscape:connector-curvature="0" />
      <path
         id="path10932"
         d="m 2828.6551,744.91205 c -1.1688,0.42577 -2.3773,0.856 -3.8976,1.24304 -1.9215,0.4891 -4.1126,0.95348 -6.5313,1.36943 -2.4187,0.41595 -5.0566,0.78621 -7.9007,1.11674 -2.8443,0.33026 -5.8826,0.61005 -9.0807,0.8427 -3.198,0.23253 -6.5485,0.40435 -10.0287,0.52668 -3.4803,0.12229 -7.0964,0.18968 -10.7872,0.18968 -3.6907,0 -7.2858,-0.0665 -10.7661,-0.18968 -3.4802,-0.12228 -6.8517,-0.29411 -10.0497,-0.52668 -3.1981,-0.23297 -6.2365,-0.51231 -9.0807,-0.8427 -2.8441,-0.33071 -5.4821,-0.7007 -7.9007,-1.11674 -2.4187,-0.41595 -4.6099,-0.88033 -6.5313,-1.36943 -1.3718,-0.34901 -2.4314,-0.73551 -3.5185,-1.11665 -1.0503,8.5561 0.9915,21.74958 4.076,32.07714 6.9104,23.13748 26.1521,55.2235 45.369,55.2235 20.4777,0 36.5462,-32.39892 42.8473,-55.2235 2.8761,-10.41856 4.5655,-23.91263 3.7809,-32.20353 z"
         style="fill:#592e09;fill-opacity:1;stroke:none"
         inkscape:connector-curvature="0"
         sodipodi:nodetypes="ccsccsscccsccsssc" />
      <path
         style="fill:#d5f8ff;fill-opacity:1;stroke:none"
         d="m 2728.0342,768.6142 c -7.729,0 -13.94,9.87737 -13.94,22.1637 l 0,9.60057 c 0,12.28629 6.211,22.16366 13.94,22.16366 l 27.5239,0 27.5239,0 27.5239,0 27.5239,0 c 7.729,0 13.9633,-9.87737 13.9633,-22.16366 l 0,-9.60057 c 0,-12.28633 -6.2343,-22.1637 -13.9633,-22.1637 z m 10.0569,5.21833 c 0.1923,-0.0179 0.3891,0 0.5839,0 l 88.8141,0 c 6.2343,0 11.245,7.97408 11.245,17.8843 l 0,7.72267 c 0,9.91022 -5.0107,17.88434 -11.245,17.88434 l -22.2036,0 -22.2035,0 -22.2035,0 -22.2035,0 c -6.2343,0 -11.2451,-7.97412 -11.2451,-17.88434 l 0,-7.72267 c 0,-9.60049 4.6989,-17.40698 10.6612,-17.8843 z"
         id="path10934"
         inkscape:connector-curvature="0"
         sodipodi:nodetypes="sssscccssssscssssscccsssc" />
      <path
         id="path10936"
         d="m 5965.961,-1079.5648 c 0,9.2052 -31.4321,16.6675 -70.2056,16.6675 -38.7735,0 -70.2056,-7.4623 -70.2056,-16.6675 0,-9.2052 31.4321,-16.6675 70.2056,-16.6675 38.7735,0 70.2056,7.4623 70.2056,16.6675 z"
         style="fill:#984d0b;fill-opacity:1;stroke:none"
         transform="matrix(0.6921583,0,0,0.5516169,-1300.3632,1340.2652)"
         inkscape:connector-curvature="0" />
      <path
         id="path10938"
         d="m 447.85715,374.50504 c 0,7.49529 -15.35023,13.57142 -34.28571,13.57142 -18.93547,0 -34.28571,-6.07613 -34.28571,-13.57142 0,-7.4953 15.35024,-13.57143 34.28571,-13.57143 18.93548,0 34.28571,6.07613 34.28571,13.57143 z"
         style="color:#000000;fill:#effcff;fill-opacity:1;fill-rule:nonzero;stroke:none;stroke-width:1;marker:none;visibility:visible;display:inline;overflow:visible;enable-background:accumulate"
         transform="matrix(0.48190649,0,0,0.80486208,2551.8075,496.93422)"
         inkscape:connector-curvature="0" />
      <path
         id="path10940"
         d="m 909.51777,1089.965 c 0,4.7198 -3.6349,8.5461 -8.11878,8.5461 -4.48389,0 -8.11879,-3.8263 -8.11879,-8.5461 0,-4.7199 3.6349,-8.5461 8.11879,-8.5461 4.48388,0 8.11878,3.8262 8.11878,8.5461 z"
         style="color:#000000;fill:#effcff;fill-opacity:1;fill-rule:nonzero;stroke:none;stroke-width:1;marker:none;visibility:visible;display:inline;overflow:visible;enable-background:accumulate"
         transform="matrix(2.2033499,0,0,1.7075961,825.00461,-968.74885)"
         inkscape:connector-curvature="0" />
      <path
         id="path10942"
         d="m 909.51777,1089.965 c 0,4.7198 -3.6349,8.5461 -8.11878,8.5461 -4.48389,0 -8.11879,-3.8263 -8.11879,-8.5461 0,-4.7199 3.6349,-8.5461 8.11879,-8.5461 4.48388,0 8.11878,3.8262 8.11878,8.5461 z"
         style="color:#000000;fill:#effcff;fill-opacity:1;fill-rule:nonzero;stroke:none;stroke-width:1;marker:none;visibility:visible;display:inline;overflow:visible;enable-background:accumulate"
         transform="matrix(1.1707497,0,0,0.997978,1774.7271,-163.65133)"
         inkscape:connector-curvature="0" />
      <path
         inkscape:connector-curvature="0"
         id="path10944"
         d="m 2783.0343,964.00787 c -15.8328,0 -29.9952,3.14508 -40.3066,8.22868 9.0302,8.5503 21.1684,14.19066 34.5884,15.4811 1.9022,0.0942 3.7651,0.27893 5.7182,0.27893 2.0003,0 3.9109,-0.1803 5.8577,-0.27893 13.42,-1.29044 25.5583,-6.9308 34.5884,-15.4811 -10.3207,-5.11555 -24.5584,-8.22868 -40.4461,-8.22868 z"
         style="color:#000000;fill:#690bc5;fill-opacity:1;stroke:none;stroke-width:1.01139176;marker:none;visibility:visible;display:inline;overflow:visible;enable-background:accumulate" />
    </g>
    <g
       inkscape:export-ydpi="90"
       inkscape:export-xdpi="90"
       inkscape:export-filename="G:\_PROJECTS\Stock Packs\2016\Castle Pack\Pack\game_items_pack\PNG\256px\Gems\gem_9.png"
       id="g11153"
       transform="matrix(4.5639064,0,0,4.5639064,-2494.5146,-987.01021)">
      <path
         style="color:#000000;fill:#5dcc0e;fill-opacity:1;fill-rule:nonzero;stroke:none;stroke-width:5;marker:none;visibility:visible;display:inline;overflow:visible;enable-background:accumulate"
         d="m 678.49121,401.28431 15.9492,-15.25316 24.1939,0 15.9492,15.25316 -28.0462,22.97262 z"
         id="path11155"
         inkscape:connector-curvature="0"
         sodipodi:nodetypes="cccccc" />
      <path
         sodipodi:nodetypes="ccccc"
         inkscape:connector-curvature="0"
         id="path11157"
         d="m 694.43571,386.03223 -3.707,15.25 31.6014,0 -3.707,-15.25 z"
         style="color:#000000;fill:#009d39;fill-opacity:1;fill-rule:nonzero;stroke:none;stroke-width:5;marker:none;visibility:visible;display:inline;overflow:visible;enable-background:accumulate" />
      <path
         sodipodi:nodetypes="cccc"
         inkscape:connector-curvature="0"
         id="path11159"
         d="m 678.49121,401.28431 56.0923,0 -28.0462,26.97262 z"
         style="color:#000000;fill:#009d39;fill-opacity:1;fill-rule:nonzero;stroke:none;stroke-width:5;marker:none;visibility:visible;display:inline;overflow:visible;enable-background:accumulate" />
      <path
         style="color:#000000;fill:#c8fea4;fill-opacity:1;fill-rule:nonzero;stroke:none;stroke-width:5;marker:none;visibility:visible;display:inline;overflow:visible;enable-background:accumulate"
         d="m 690.58371,401.28431 15.9536,-15.25316 15.9537,15.25316 -15.9537,20.97262 z"
         id="path11161"
         inkscape:connector-curvature="0"
         sodipodi:nodetypes="ccccc" />
      <path
         sodipodi:nodetypes="cccc"
         inkscape:connector-curvature="0"
         id="path11163"
         d="m 691.58371,401.28431 31.9073,0 -16.9537,26.81101 z"
         style="color:#000000;fill:#5dcc0e;fill-opacity:1;fill-rule:nonzero;stroke:none;stroke-width:5;marker:none;visibility:visible;display:inline;overflow:visible;enable-background:accumulate" />
      <path
         sodipodi:nodetypes="ccccccccc"
         inkscape:connector-curvature="0"
         id="path11165"
         d="m 679.10191,401.26741 10.1125,-1.45804 17.0677,-13.23904 -13.8912,13.23904 29.4333,1.52566 -28.7637,1.10423 12.8329,24.31313 -15.6817,-24.31313 z"
         style="color:#000000;fill:#ffffff;fill-opacity:1;fill-rule:nonzero;stroke:none;stroke-width:5;marker:none;visibility:visible;display:inline;overflow:visible;enable-background:accumulate" />
    </g>
    <g
       id="g11314"
       transform="translate(-1770.7949,404.50962)">
      <path
         style="color:#000000;fill:#ff5a00;fill-opacity:1;fill-rule:nonzero;stroke:none;stroke-width:5;marker:none;visibility:visible;display:inline;overflow:visible;enable-background:accumulate"
         d="m 2655.104,439.9042 72.7907,-69.61399 110.4187,0 72.7907,69.61399 -126.3865,104.54431 z"
         id="path11183"
         inkscape:connector-curvature="0"
         sodipodi:nodetypes="cccccc" />
      <path
         sodipodi:nodetypes="ccccc"
         inkscape:connector-curvature="0"
         id="path11185"
         d="m 2727.8733,370.29513 -16.9184,69.59958 144.2258,0 -16.9184,-69.59958 z"
         style="color:#000000;fill:#7c0201;fill-opacity:1;fill-rule:nonzero;stroke:none;stroke-width:5;marker:none;visibility:visible;display:inline;overflow:visible;enable-background:accumulate" />
      <path
         sodipodi:nodetypes="cccc"
         inkscape:connector-curvature="0"
         id="path11187"
         d="m 2655.104,439.9042 256.0001,0 -128.0003,123.10051 z"
         style="color:#000000;fill:#7c0201;fill-opacity:1;fill-rule:nonzero;stroke:none;stroke-width:5;marker:none;visibility:visible;display:inline;overflow:visible;enable-background:accumulate" />
      <path
         style="color:#000000;fill:#ffc075;fill-opacity:1;fill-rule:nonzero;stroke:none;stroke-width:5;marker:none;visibility:visible;display:inline;overflow:visible;enable-background:accumulate"
         d="m 2710.2931,439.9042 72.8107,-69.61399 72.8112,69.61399 -67.9702,69.85223 z"
         id="path11189"
         inkscape:connector-curvature="0"
         sodipodi:nodetypes="ccccc" />
      <path
         sodipodi:nodetypes="cccc"
         inkscape:connector-curvature="0"
         id="path11191"
         d="m 2710.2931,439.9042 145.6219,0 -72.8112,123.10051 z"
         style="color:#000000;fill:#ff5a00;fill-opacity:1;fill-rule:nonzero;stroke:none;stroke-width:5;marker:none;visibility:visible;display:inline;overflow:visible;enable-background:accumulate" />
      <path
         sodipodi:nodetypes="ccccccccc"
         inkscape:connector-curvature="0"
         id="path11193"
         d="m 2657.8912,439.82707 46.1525,-6.65436 77.8954,-60.42174 -63.3981,60.42174 134.3308,6.96297 -131.2748,5.0396 59.1386,113.21615 -72.1403,-113.21615 z"
         style="color:#000000;fill:#ffffff;fill-opacity:1;fill-rule:nonzero;stroke:none;stroke-width:5;marker:none;visibility:visible;display:inline;overflow:visible;enable-background:accumulate" />
    </g>
  </g>
</svg>
